<?xml version="1.0" encoding="UTF-8"?>
<svg width="273px" height="118px" viewBox="0 0 273 118" version="1.1" xmlns="http://www.w3.org/2000/svg" xmlns:xlink="http://www.w3.org/1999/xlink">
    <title>Fill 1</title>
    <defs>
        <filter x="-0.7%" y="-1.3%" width="101.4%" height="102.7%" filterUnits="objectBoundingBox" id="filter-1">
            <feOffset dx="0" dy="2" in="SourceAlpha" result="shadowOffsetOuter1"></feOffset>
            <feGaussianBlur stdDeviation="2" in="shadowOffsetOuter1" result="shadowBlurOuter1"></feGaussianBlur>
            <feColorMatrix values="0 0 0 0 0   0 0 0 0 0   0 0 0 0 0  0 0 0 0.5 0" type="matrix" in="shadowBlurOuter1" result="shadowMatrixOuter1"></feColorMatrix>
            <feMerge>
                <feMergeNode in="shadowMatrixOuter1"></feMergeNode>
                <feMergeNode in="SourceGraphic"></feMergeNode>
            </feMerge>
        </filter>
        <filter x="-4.6%" y="-6.9%" width="109.2%" height="117.3%" filterUnits="objectBoundingBox" id="filter-2">
            <feOffset dx="0" dy="2" in="SourceAlpha" result="shadowOffsetOuter1"></feOffset>
            <feGaussianBlur stdDeviation="2" in="shadowOffsetOuter1" result="shadowBlurOuter1"></feGaussianBlur>
            <feColorMatrix values="0 0 0 0 0   0 0 0 0 0   0 0 0 0 0  0 0 0 0.5 0" type="matrix" in="shadowBlurOuter1" result="shadowMatrixOuter1"></feColorMatrix>
            <feMerge>
                <feMergeNode in="shadowMatrixOuter1"></feMergeNode>
                <feMergeNode in="SourceGraphic"></feMergeNode>
            </feMerge>
        </filter>
    </defs>
    <g id="Designs" stroke="none" stroke-width="1" fill="none" fill-rule="evenodd">
        <g id="Home-desktop-1680" transform="translate(-703.000000, -702.000000)" fill="#FFFFFF">
            <g id="Group-9" filter="url(#filter-1)" transform="translate(0.000000, 128.000000)">
                <g id="Group-28" transform="translate(580.000000, 144.000000)">
                    <g id="Welcome" filter="url(#filter-2)" transform="translate(129.000000, 432.000000)">
                        <path d="M252.395243,68.3300596 C252.091282,67.373248 251.532877,66.9839363 250.634163,67.2569893 C250.321903,67.3515727 250.010501,67.4458745 249.698241,67.5398948 C251.274426,72.6023541 252.850324,77.6645319 254.426223,82.7272727 C254.750504,82.6295929 255.073927,82.5316316 255.397922,82.4333889 C256.330696,82.1493574 256.592582,81.5438553 256.287477,80.5876067 C254.989779,76.5016638 253.692654,72.4160025 252.395243,68.3300596 L252.395243,68.3300596 Z M256.715668,85.8318663 C254.69758,86.4623845 252.676169,87.0772585 250.650879,87.6767677 C248.449984,80.1150185 246.248811,72.5532694 244.047361,64.9912409 C245.96075,64.4246964 247.871092,63.8433457 249.77811,63.2474682 C252.769512,62.3127256 255.634886,63.4206722 256.728686,66.7950762 C258.048504,70.8916289 259.368044,74.9879023 260.687584,79.0847344 C261.781661,82.4588591 259.893755,84.8387372 256.715668,85.8318663 L256.715668,85.8318663 Z M227.544899,74.3162196 C227.391235,73.6947424 226.833886,73.4280753 226.227095,73.5747002 C225.618337,73.721605 225.21072,74.2213611 225.359608,74.8439576 C226.468126,79.4542496 227.576643,84.0648214 228.685722,88.6751135 C228.834049,89.2974301 229.447582,89.5540238 230.079375,89.4015227 C230.71173,89.2487417 231.099402,88.7506645 230.9463,88.1291873 C229.8125,83.5250513 228.678418,78.9206355 227.544899,74.3162196 L227.544899,74.3162196 Z M230.7763,93.469239 C227.385386,94.2989469 224.240938,92.7066832 223.536354,89.5378901 C222.532392,85.081406 221.528708,80.624641 220.525303,76.167876 C219.819883,72.9959922 221.830314,70.2719765 225.014587,69.4925624 C228.162378,68.7227013 231.192924,70.2146584 232.003613,73.3606928 L235.395362,86.6374245 C236.20633,89.7803682 234.131846,92.6490841 230.7763,93.469239 L230.7763,93.469239 Z M202.740222,79.6729341 C202.629427,79.0499727 202.113733,78.7523355 201.524985,78.8600386 C200.935428,78.9680186 200.516511,79.4364857 200.622723,80.0602778 C201.411495,84.6807138 202.199997,89.3011499 202.988499,93.9215859 C203.094441,94.545378 203.663241,94.8358165 204.27679,94.7239603 C204.888991,94.6121041 205.289577,94.1433602 205.179322,93.5206756 C204.366288,88.9046695 203.553525,84.2889403 202.740222,79.6729341 L202.740222,79.6729341 Z M204.984111,98.869899 C201.52704,99.4826296 198.465834,97.7062142 197.948792,94.516214 C197.211606,90.0289134 196.474701,85.5416129 195.737234,81.0540328 C195.220754,77.8609577 197.406727,75.2811722 200.653494,74.7056192 C203.864555,74.1376136 206.815267,75.8078073 207.438867,78.9818744 C208.305384,83.4462534 209.172182,87.910912 210.038699,92.3750116 C210.662017,95.5462833 208.402944,98.2644363 204.984111,98.869899 L204.984111,98.869899 Z M179.872778,102.049898 C179.505852,98.9521919 179.138927,95.8547631 178.772001,92.7567787 C177.871289,92.8626475 176.971415,92.9654598 176.070145,93.0654934 C176.416981,96.165423 176.763537,99.2653526 177.110372,102.365004 C175.482785,102.545898 173.854082,102.717067 172.2251,102.878788 C171.443256,95.0786693 170.661411,87.2782728 169.879567,79.4781542 C171.41898,79.3250472 172.957835,79.1633263 174.496132,78.9927134 C174.866406,82.3029914 175.23668,85.6135472 175.606675,88.9238252 C176.498737,88.8249031 177.390519,88.7232023 178.282023,88.6184449 C177.890264,85.3103899 177.498225,82.0026128 177.106466,78.6945578 C178.631649,78.5153309 180.156831,78.327768 181.680619,78.1313131 C182.691268,85.9053119 183.702197,93.6793106 184.713126,101.453309 C183.100886,101.661435 181.48725,101.860113 179.872778,102.049898 L179.872778,102.049898 Z M152.336003,85.8699535 C152.295133,85.0907059 152.011644,84.8235193 151.53656,84.8502937 C151.176276,84.8712113 150.815733,84.8912921 150.454668,84.9105362 C150.559578,87.1289097 150.663966,89.3472831 150.768354,91.5656566 C151.134885,91.5458546 151.501677,91.5254949 151.867947,91.5045774 C152.348499,91.4769663 152.6096,91.1771484 152.569771,90.3995742 C152.491675,88.8896076 152.414099,87.3796411 152.336003,85.8699535 L152.336003,85.8699535 Z M154.782959,104.596206 C154.012506,104.640823 153.469238,102.491932 153.386266,100.997137 C153.297932,99.4187205 153.209881,97.8400238 153.121547,96.2616077 C153.087398,95.6560571 152.713461,95.0345119 152.038115,95.0704296 C151.662202,95.0900721 151.286006,95.1097146 150.910093,95.1285153 C151.073497,98.3453976 151.2369,101.56256 151.400022,104.779162 C149.74764,104.862222 148.094976,104.935741 146.44203,105 C146.131309,97.0896798 145.821152,89.1796403 145.510149,81.2693201 C147.665724,81.1856991 149.821017,81.0852417 151.974898,80.9676672 C154.260011,80.8450418 156.710785,82.1122645 156.927246,85.2772344 C157.032513,86.8550893 157.137215,88.4326636 157.242482,90.0099573 C157.320656,91.1834571 156.647568,92.3022385 155.455765,93.0531436 C156.728,93.6182868 157.628273,94.6657939 157.707012,95.8395743 C157.808892,97.3700065 157.911902,98.9001582 158.013782,100.43031 C158.113405,101.924263 158.499478,103.114319 158.92365,104.229452 C158.925908,104.264809 158.928448,104.300165 158.930988,104.335802 C157.548406,104.429245 156.165824,104.516233 154.782959,104.596206 L154.782959,104.596206 Z M122.200271,104.93511 C122.336419,97.0610239 122.472568,89.186938 122.608717,81.3131313 C125.834696,81.3695203 129.061229,81.3873862 132.287485,81.3656122 C132.296081,82.7021997 132.304955,84.0382288 132.313828,85.3745372 C130.594637,85.3859825 128.875446,85.3862616 127.156255,85.3759329 L127.122148,91.0165108 C128.267906,91.0234896 129.413386,91.0257228 130.558867,91.0229313 C130.561362,92.2523238 130.56469,93.4819955 130.567185,94.7111088 C129.411445,94.7139003 128.255705,94.7116671 127.099965,94.7046883 C127.087764,96.7506051 127.075286,98.7962427 127.063086,100.84216 C128.847162,100.853047 130.630962,100.852767 132.415593,100.840764 C132.424743,102.22397 132.433339,103.607455 132.44249,104.990661 C129.028786,105.013273 125.613974,104.994849 122.200271,104.93511 L122.200271,104.93511 Z M105.188289,104.428717 C105.053065,103.889505 104.918402,103.349735 104.784859,102.810523 C104.026154,104.077881 102.530301,104.733574 101.079802,104.637157 C97.7557771,104.416178 95.8371768,102.020235 96.0866257,98.9510434 C96.4530999,94.3380599 96.8195741,89.7250765 97.1860483,85.1126504 C97.4158996,82.3229575 99.9826189,80.0471187 103.393433,80.2672622 C106.801727,80.4857338 108.909024,83.0653151 108.773241,85.8608599 C108.706609,87.1580351 108.641097,88.454653 108.574745,89.7515495 C107.089811,89.6765892 105.605436,89.5938264 104.121902,89.5029823 C104.203652,88.1829568 104.285121,86.8632099 104.366591,85.543463 C104.408026,84.8724431 103.997597,84.4224027 103.198577,84.3714075 C102.435952,84.3220841 101.970931,84.7161133 101.925856,85.3865759 C101.606976,90.0859448 101.288376,94.7855923 100.969776,99.4849612 C100.923301,100.155424 101.380764,100.683768 102.175865,100.734764 C103.006521,100.787988 103.528096,100.322622 103.570651,99.6518802 C103.649601,98.3672449 103.728831,97.0828882 103.808061,95.7982528 C103.384754,95.7726159 102.961167,95.7461429 102.53786,95.718834 C102.606451,94.6588008 102.675043,93.598489 102.743634,92.5384558 C104.69527,92.6632967 106.647466,92.7747618 108.600502,92.8725725 C108.403127,96.7746872 108.205752,100.677081 108.008376,104.579195 C107.068254,104.532101 106.128411,104.482221 105.188289,104.428717 L105.188289,104.428717 Z M72.0487145,101.257558 C73.0943412,93.4310581 74.139968,85.6045579 75.1855947,77.7777778 C78.3746321,78.2162074 81.567257,78.6157214 84.7631935,78.97576 C84.6172087,80.3078469 84.4714998,81.6399337 84.325515,82.9720206 C82.6225425,82.7796827 80.9206739,82.576706 79.2193572,82.3628106 C78.9903073,84.2341155 78.7618093,86.1057003 78.5327593,87.9770052 C79.6666945,88.1197887 80.8006297,88.2572529 81.9345648,88.3905176 C81.7952031,89.6150968 81.6561174,90.839956 81.5164797,92.0648152 C80.3717819,91.9309906 79.2276361,91.7915666 78.0843182,91.6479431 C77.8356748,93.684149 77.5864796,95.7206349 77.3378362,97.7568408 C79.1031765,97.9788552 80.8698966,98.189391 82.6368926,98.3887281 C82.4853885,99.7675696 82.3347123,101.146691 82.1837601,102.525253 C78.8015481,102.144216 75.4229236,101.721465 72.0487145,101.257558 L72.0487145,101.257558 Z M55.0960758,81.6666667 C54.1617854,84.617411 53.2199722,87.5659206 52.270636,90.512754 C52.9213696,90.6292418 53.5718139,90.7446122 54.2231263,90.8585859 C54.5081297,87.7938679 54.79892,84.7297086 55.0960758,81.6666667 L55.0960758,81.6666667 Z M53.9451129,98.5058044 C54.0563711,97.2450504 54.168756,95.9848525 54.2825492,94.7246545 C53.3302352,94.5553493 52.3782029,94.382986 51.4270156,94.2072866 C51.054371,95.4202237 50.680318,96.6331608 50.3051384,97.8458199 C48.8401917,97.5739307 47.3758083,97.2942574 45.9133965,97.0073559 C48.6858385,89.5548681 51.392089,82.084032 54.0310211,74.5959596 C55.7970692,74.9267859 57.5648073,75.246214 59.3342355,75.5539658 C59.1021424,83.4773945 58.9387759,91.4072174 58.8418826,99.3434343 C57.2084994,99.0734912 55.5759611,98.7943739 53.9451129,98.5058044 L53.9451129,98.5058044 Z M32.4311267,74.6710758 C32.6056339,73.9200968 32.3994706,73.5791192 31.9254281,73.4584656 C31.5644428,73.366802 31.2039896,73.2745862 30.8427383,73.1818182 C30.3330494,75.3163103 29.8233606,77.4502502 29.3139378,79.5847423 C29.6805094,79.6791669 30.047347,79.7727631 30.4139187,79.8658072 C30.8943456,79.9883935 31.2356456,79.7843591 31.4101529,79.0350367 C31.7503888,77.5805671 32.0906247,76.1255454 32.4311267,74.6710758 L32.4311267,74.6710758 Z M29.6501406,93.4504626 C28.9009564,93.2713638 29.0004925,91.0702898 29.3540558,89.6241088 C29.7264049,88.0964686 30.0984735,86.5691074 30.471103,85.0414672 C30.6126966,84.45563 30.4366158,83.756531 29.7782758,83.5966811 C29.4120952,83.5071317 29.0467557,83.4175823 28.6811358,83.327475 C27.9067171,86.4357597 27.1322984,89.5440444 26.3584404,92.6520502 C24.751844,92.2561916 23.1472102,91.8502901 21.5439783,91.4354616 C23.5349803,83.8190203 25.5259823,76.2025789 27.5169843,68.5858586 C29.6078027,69.1267816 31.7011446,69.6509664 33.7978511,70.158413 C36.0210105,70.6979411 37.9991148,72.6077703 37.2908666,75.6817418 C36.9350601,77.2135665 36.5792537,78.7448333 36.2234472,80.2761001 C35.9593262,81.415135 34.9922841,82.2866376 33.6335465,82.6590626 C34.6891897,83.5618098 35.2465917,84.8174542 34.9816295,85.957047 C34.636758,87.4428417 34.2918865,88.9283574 33.947015,90.4138731 C33.6108354,91.8639597 33.6360699,93.1076083 33.718783,94.2901625 C33.7103715,94.3247548 33.7025208,94.3593471 33.69467,94.3939394 C32.3451851,94.0856774 30.9971021,93.7712782 29.6501406,93.4504626 L29.6501406,93.4504626 Z M10.4061541,67.9083715 C8.51346315,74.1443949 6.62077217,80.3804184 4.72780071,86.6161616 C3.14981027,86.1381272 1.57406369,85.6511261 0,85.1543178 C1.96421383,78.9404308 3.92870815,72.7268239 5.89320246,66.5129369 C4.81306717,66.1722043 3.73433428,65.8269883 2.65644284,65.4772891 C3.08614091,64.1563898 3.51583898,62.8357706 3.94525657,61.5151515 C7.56234947,62.689222 11.1929055,63.8117342 14.8335589,64.8821278 C14.4414453,66.2142355 14.0487709,67.5463431 13.6563769,68.8784507 C12.5720344,68.5598545 11.4882528,68.2364948 10.4061541,67.9083715 L10.4061541,67.9083715 Z M163.522327,61.5151515 L163.522327,42.7777778 L171.292287,42.7777778 L171.292287,45.956721 L167.192312,45.956721 L167.192312,50.430293 L169.886289,50.430293 L169.886289,53.3563943 L167.192312,53.3563943 L167.192312,58.223462 L171.292287,58.223462 L171.292287,61.5151515 L163.522327,61.5151515 Z M152.543768,61.5151515 L152.543768,54.0591051 L150.512251,54.0591051 L150.512251,61.5151515 L146.922869,61.5151515 L146.922869,42.7777778 L150.512251,42.7777778 L150.512251,50.7400662 L152.543768,50.7400662 L152.543768,42.7777778 L156.105548,42.7777778 L156.105548,61.5151515 L152.543768,61.5151515 Z M137.256826,46.0694673 L137.256826,61.5151515 L133.634179,61.5151515 L133.634179,46.0694673 L131.02977,46.0694673 L131.02977,42.7777778 L139.859269,42.7777778 L139.859269,46.0694673 L137.256826,46.0694673 Z M110.898512,46.4344476 C110.898512,45.920247 110.522012,45.6060606 110.030639,45.6060606 C109.538691,45.6060606 109.132612,45.920247 109.132612,46.4344476 L109.132612,57.8584817 C109.132612,58.3723989 109.538691,58.6868687 110.030639,58.6868687 C110.522012,58.6868687 110.898512,58.3723989 110.898512,57.8584817 L110.898512,46.4344476 Z M110.207098,61.8686869 C107.620539,61.8686869 105.600812,60.0959859 105.600812,57.5353248 L105.600812,46.7296923 C105.600812,44.1690312 107.620539,42.4242424 110.207098,42.4242424 C112.765456,42.4242424 114.783491,44.1690312 114.783491,46.7296923 L114.783491,57.5353248 C114.783491,60.0959859 112.765456,61.8686869 110.207098,61.8686869 L110.207098,61.8686869 Z M96.2876679,46.0694673 L96.2876679,61.5151515 L92.6650213,61.5151515 L92.6650213,46.0694673 L90.0608931,46.0694673 L90.0608931,42.7777778 L98.8903924,42.7777778 L98.8903924,46.0694673 L96.2876679,46.0694673 Z M194.248985,25.8080808 L194.248985,0.707070707 L204.491204,0.707070707 L204.491204,4.96581506 L199.086633,4.96581506 L199.086633,10.9584528 L202.639163,10.9584528 L202.639163,14.8782553 L199.086633,14.8782553 L199.086633,21.3984779 L204.491204,21.3984779 L204.491204,25.8080808 L194.248985,25.8080808 Z M179.33041,25.8080808 L179.33041,7.79210321 L178.533047,13.7472362 L176.784211,25.8080808 L173.667864,25.8080808 L172.07088,13.7472362 L171.348878,7.79210321 L171.348878,25.8080808 L167.054127,25.8080808 L167.054127,0.707070707 L173.477908,0.707070707 L175.035376,10.5439417 L175.605526,15.6319881 L176.175675,10.5439417 L177.696451,0.707070707 L184.006766,0.707070707 L184.006766,25.8080808 L179.33041,25.8080808 Z M152.220568,5.69337291 C152.220568,5.0122295 151.76919,4.5959596 151.177933,4.5959596 C150.587708,4.5959596 150.101488,5.0122295 150.101488,5.69337291 L150.101488,20.8226213 C150.101488,21.5037647 150.587708,21.9191919 151.177933,21.9191919 C151.76919,21.9191919 152.220568,21.5037647 152.220568,20.8226213 L152.220568,5.69337291 Z M151.17911,26.1616162 C147.796883,26.1616162 145.156969,23.7760542 145.156969,20.330836 L145.156969,5.79254372 C145.156969,2.34732551 147.796883,0 151.17911,0 C154.524897,0 157.165088,2.34732551 157.165088,5.79254372 L157.165088,20.330836 C157.165088,23.7760542 154.524897,26.1616162 151.17911,26.1616162 L151.17911,26.1616162 Z M129.979122,26.1616162 C126.396899,26.1616162 123.612991,23.7039375 123.612991,20.1125934 L123.612991,6.04874197 C123.612991,2.45683643 126.396899,0 129.979122,0 C133.487176,0 135.62111,2.38131489 135.62111,5.82161585 L135.62111,9.640086 L131.351827,9.640086 L131.351827,5.74609431 C131.351827,4.98975591 130.932287,4.42292323 129.979122,4.42292323 C129.064458,4.42292323 128.607834,4.98975591 128.607834,5.74609431 L128.607834,20.4146796 C128.607834,21.1707373 129.064458,21.7378507 129.979122,21.7378507 C130.932287,21.7378507 131.351827,21.1707373 131.351827,20.4146796 L131.351827,16.4833483 L135.62111,16.4833483 L135.62111,20.3391581 C135.62111,23.779459 133.487176,26.1616162 129.979122,26.1616162 L129.979122,26.1616162 Z M104.894452,25.8080808 L104.894452,0.707070707 L109.706906,0.707070707 L109.706906,21.511272 L114.783491,21.511272 L114.783491,25.8080808 L104.894452,25.8080808 Z M84.7631935,25.8080808 L84.7631935,0.707070707 L95.0054127,0.707070707 L95.0054127,4.96581506 L89.6009742,4.96581506 L89.6009742,10.9584528 L93.1538817,10.9584528 L93.1538817,14.8782553 L89.6009742,14.8782553 L89.6009742,21.3984779 L95.0054127,21.3984779 L95.0054127,25.8080808 L84.7631935,25.8080808 Z M71.9912727,25.8080808 L67.8991389,25.8080808 L66.2852023,12.7676354 L64.5209958,25.8080808 L60.5409371,25.8080808 L56.8619756,0.707070707 L61.5551886,0.707070707 L63.1312093,15.9709299 L64.858615,0.707070707 L68.3123112,0.707070707 L69.8897258,15.9709299 L71.6160164,0.707070707 L75.9336942,0.707070707 L71.9912727,25.8080808 Z" id="Fill-1"></path>
                    </g>
                </g>
            </g>
        </g>
    </g>
</svg>